<svg xmlns="http://www.w3.org/2000/svg" width="24" height="24" viewBox="0 0 24 24"><g transform="translate(-337 -16)"><rect width="24" height="24" transform="translate(337 16)" fill="none"/><path d="M17.814,16.36a2.83,2.83,0,0,0-.8.567,3.9,3.9,0,0,0-.594.9l-3.294-3.271,1.43-1.428ZM13.12,3A10.086,10.086,0,0,0,5.98,5.95l-.01.01a10.122,10.122,0,0,0,0,14.31L20.27,5.96A10.086,10.086,0,0,0,13.12,3ZM6.14,17.27A8.063,8.063,0,0,1,5,13.12a7.97,7.97,0,0,1,.46-2.67,11.285,11.285,0,0,0,2.07,5.44L6.14,17.27Zm2.84-2.84A9.1,9.1,0,0,1,7.6,7.6a8.591,8.591,0,0,1,1.75-.18,9.206,9.206,0,0,1,5.08,1.56L8.98,14.43Zm1.47-8.97A7.97,7.97,0,0,1,13.12,5a8.063,8.063,0,0,1,4.15,1.14L15.88,7.53a11.25,11.25,0,0,0-5.43-2.07Z" transform="translate(335 15)" fill="#fff"/><path d="M21,15v3h3v2H21v3H19V20H16V18h3V15h2" transform="translate(336 16)" fill="#fff"/></g></svg>