<svg version="1" xmlns="http://www.w3.org/2000/svg" width="349.333" height="349.333" viewBox="0 0 262.000000 262.000000"><path d="M121.5 6.6C99.7 20.4 84 26.9 52.9 35l-12.6 3.3-3.7 15.1c-6.4 25.3-10.9 36.2-26.1 62.1-4.7 8-8.5 14.8-8.5 15.2 0 .3 3.3 6.3 7.4 13.2 15.2 26 20.1 37.5 27 63.9l4.1 15.6 16 3.7c28 6.4 43 12.6 63.5 26.2 11.3 7.5 11.5 7.6 14 6 20.2-13.4 35-19.7 75.5-32.2l13-4 8.8-26.6c9.1-27.3 15.3-41.5 24.7-56.6 2.9-4.6 5.3-8.9 5.3-9.4 0-.6-2.2-4.4-5-8.5-17.9-26.7-26.2-46.2-30.4-71.4-1.2-6.7-2.4-12.4-2.7-12.7-.4-.3-5.9-1.3-12.3-2.3-27.9-4-41.3-9.5-68.4-28-4.9-3.4-9.4-6.5-10-6.8-.5-.3-5.5 2.3-11 5.8zm20.1 28.9c18.8 11.8 31.9 17.2 51.9 21.3l9 1.9 2.6 10.4c4.6 17.8 11.8 34.5 22.8 52.8l5.1 8.4-7.5 15c-5.2 10.6-9.6 21.5-14.6 36.8l-7.2 21.7-23.4 7.7c-15.9 5.2-27.4 9.7-36 14l-12.7 6.4-8.3-5c-16.4-9.9-37.5-18.2-56.4-22.1-7-1.4-6.3-.2-11.3-17.5-4.4-15.1-9.4-26.6-18.7-43.6l-7.2-13.2 2.3-4c13-22.9 21.3-42.3 26.5-61.8l1.8-6.7 5.6-1.6c25.4-7.1 43.3-14.4 59.6-24.3 2.8-1.6 5.2-3 5.3-3 .2-.1 5.1 2.8 10.8 6.4z"/><path d="M122 54.2c-10.8 6.7-20.1 10.4-36.2 14.9-6.2 1.7-11.4 3.2-11.5 3.3-.2.1-1.4 4.5-2.8 9.8-3.7 14.3-6.8 22-14.5 35.5-3.9 6.8-7 12.5-7 12.8 0 .3 2.5 4.9 5.6 10.3 7.5 12.9 11.8 23.1 15.4 36.5 1.6 6 3.1 11.1 3.3 11.4.3.2 5.6 1.7 11.8 3.2 18.2 4.6 28.9 9.3 41.8 18.4l3.5 2.4 6.4-4c8.9-5.4 19.3-9.7 36.5-15.1 9.2-2.9 14.7-5.2 15.1-6.2.3-.9 2.9-8.5 5.6-16.9 4.4-13.3 10.3-26.6 16.5-37l1.8-3.1-7.1-11.7c-3.9-6.5-8.4-15.2-10.1-19.5-2.8-7.4-6.1-20.9-6.1-25.1 0-1.6-.9-2.1-3.7-2.6-19.5-2.8-29.5-6.5-45.2-16.8l-9.6-6.3-9.5 5.8zm16.1 12.9c3.4 2.3 9.4 5.7 13.3 7.5 7 3.2 21.4 7.4 25.5 7.4 1.4 0 2.2.8 2.7 2.7 3.2 14.5 7.2 24.8 14.4 37l5.1 8.7-4.7 9.5c-2.6 5.3-7.1 16.3-10 24.5l-5.1 15-13.4 4.3c-7.4 2.4-18.2 6.6-24.1 9.4l-10.6 5.2-2.9-2.1c-6.3-4.5-19.8-10.4-31.4-13.7-11.6-3.4-13.8-4.5-13.9-7.1 0-3.6-7.2-21.8-12.7-32.5l-6.6-12.6 5.5-9.9c5.5-9.8 10.3-21.5 13.3-32.6l1.6-5.8 7.2-2c12.6-3.6 21-6.9 30.2-11.9 5-2.7 9.3-5 9.7-5 .4-.1 3.5 1.8 6.9 4z"/></svg>