<svg xmlns="http://www.w3.org/2000/svg" width="21.992" height="21" viewBox="0 0 21.992 21">
  <g id="AddBooking" transform="translate(-339.008 -18)">
    <path id="Path_119" data-name="Path 119" d="M17.27,15.89a6.056,6.056,0,0,0-.752.62,6.4,6.4,0,0,0-.638.76l-2.749-2.714,1.43-1.428ZM13.12,3A10.086,10.086,0,0,0,5.98,5.95l-.01.01a10.122,10.122,0,0,0,0,14.31L20.27,5.96A10.086,10.086,0,0,0,13.12,3ZM6.14,17.27A8.063,8.063,0,0,1,5,13.12a7.97,7.97,0,0,1,.46-2.67,11.285,11.285,0,0,0,2.07,5.44L6.14,17.27Zm2.84-2.84A9.1,9.1,0,0,1,7.6,7.6a8.591,8.591,0,0,1,1.75-.18,9.206,9.206,0,0,1,5.08,1.56L8.98,14.43Zm1.47-8.97A7.97,7.97,0,0,1,13.12,5a8.063,8.063,0,0,1,4.15,1.14L15.88,7.53a11.25,11.25,0,0,0-5.43-2.07Z" transform="translate(336 15)"/>
    <path id="plus" d="M21,15v3h3v2H21v3H19V20H16V18h3V15h2" transform="translate(337 16)"/>
  </g>
</svg>
