<svg xmlns="http://www.w3.org/2000/svg" width="20" height="20" viewBox="0 0 20 20"><g transform="translate(-338 -18)"><path d="M19,3H18V1H16V3H8V1H6V3H5A2.006,2.006,0,0,0,3,5V19a2.006,2.006,0,0,0,2,2h9a6.183,6.183,0,0,1-1.5-2H5V9H19v1.6a4.793,4.793,0,0,1,2,.7V5a2.006,2.006,0,0,0-2-2m0,4H5V5H19" transform="translate(335 17)"/><path d="M13.159,9.241,7.38,14.65,4.224,11.858,5.47,10.729l1.91,1.8,4.675-4.52Z" transform="translate(338.5 19.41)"/><path d="M21,15v3h3v2H21v3H19V20H16V18h3V15h2" transform="translate(334 15)"/></g></svg>