<svg xmlns="http://www.w3.org/2000/svg" width="23" height="20.88" viewBox="0 0 23 20.88">
  <g id="AddBooking" transform="translate(-338 -18.12)">
    <path id="newspaper-variant-outline" d="M20,5v9.209L15.338,19H4V5H20m0-2H4A1.993,1.993,0,0,0,2,5V19a1.993,1.993,0,0,0,2,2H15.338V19c.243,0-.179.1,0,0L20,14.209h2V5a1.993,1.993,0,0,0-2-2M18,15H6v2H18V15M10,7H6v6h4V7m2,2h6V7H12V9m6,2H12v2h6Z" transform="translate(336 15.12)"/>
    <path id="plus" d="M21,15v3h3v2H21v3H19V20H16V18h3V15h2" transform="translate(337 16)"/>
  </g>
</svg>
